HIERARCHY
ROOT joint_0
{
	OFFSET 0.000000 0.000000 0.000000
	CHANNELS 6 Xposition Yposition Zposition Zrotation Yrotation Xrotation 
	JOINT joint_1
	{
		OFFSET 4.520508 -1.939880 86.268921
		CHANNELS 3 Zrotation Yrotation Xrotation
		JOINT joint_2
		{
			OFFSET -4.459717 -0.438538 78.934082
			CHANNELS 3 Zrotation Yrotation Xrotation
			JOINT joint_3
			{
				OFFSET -5.197754 -0.781128 78.796997
				CHANNELS 3 Zrotation Yrotation Xrotation
				JOINT joint_4
				{
					OFFSET 2.952026 -3.710571 109.812988
					CHANNELS 3 Zrotation Yrotation Xrotation
					JOINT joint_5
					{
						OFFSET 24.716797 -5.488037 87.903931
						CHANNELS 3 Zrotation Yrotation Xrotation
						End Site
						{
							OFFSET 0.000000 0.000000 0.000000
						}
					}
				}
				JOINT joint_6
				{
					OFFSET -3.154419 -25.484680 60.934937
					CHANNELS 3 Zrotation Yrotation Xrotation
					JOINT joint_7
					{
						OFFSET -28.997192 -144.472229 -32.671997
						CHANNELS 3 Zrotation Yrotation Xrotation
						JOINT joint_8
						{
							OFFSET 19.867676 -18.614380 -249.897949
							CHANNELS 3 Zrotation Yrotation Xrotation
							JOINT joint_9
							{
								OFFSET 5.281982 -13.816650 -264.993042
								CHANNELS 3 Zrotation Yrotation Xrotation
								End Site
								{
									OFFSET 0.000000 0.000000 0.000000
								}
							}
						}
					}
				}
				JOINT joint_10
				{
					OFFSET 6.494995 21.336792 62.257935
					CHANNELS 3 Zrotation Yrotation Xrotation
					JOINT joint_11
					{
						OFFSET 31.106567 145.200745 -27.007935
						CHANNELS 3 Zrotation Yrotation Xrotation
						JOINT joint_12
						{
							OFFSET 29.119141 24.684326 -248.460083
							CHANNELS 3 Zrotation Yrotation Xrotation
							JOINT joint_13
							{
								OFFSET 21.220093 31.248413 -262.703979
								CHANNELS 3 Zrotation Yrotation Xrotation
								End Site
								{
									OFFSET 0.000000 0.000000 0.000000
								}
							}
						}
					}
				}
			}
		}
	}
	JOINT joint_14
	{
		OFFSET -15.458496 -88.861694 -109.593018
		CHANNELS 3 Zrotation Yrotation Xrotation
		JOINT joint_15
		{
			OFFSET -6.193359 6.837952 -506.710999
			CHANNELS 3 Zrotation Yrotation Xrotation
			JOINT joint_16
			{
				OFFSET -35.096680 13.289795 -435.677025
				CHANNELS 3 Zrotation Yrotation Xrotation
				JOINT joint_17
				{
					OFFSET 158.491211 -33.916565 -71.771002
					CHANNELS 3 Zrotation Yrotation Xrotation
					End Site
					{
						OFFSET 0.000000 0.000000 0.000000
					}
				}
			}
		}
	}
	JOINT joint_18
	{
		OFFSET 23.116943 86.574158 -110.082031
		CHANNELS 3 Zrotation Yrotation Xrotation
		JOINT joint_19
		{
			OFFSET -6.125854 -0.283569 -506.757019
			CHANNELS 3 Zrotation Yrotation Xrotation
			JOINT joint_20
			{
				OFFSET -63.240234 11.589966 -432.537994
				CHANNELS 3 Zrotation Yrotation Xrotation
				JOINT joint_21
				{
					OFFSET 156.074219 -41.487305 -73.077999
					CHANNELS 3 Zrotation Yrotation Xrotation
					End Site
					{
						OFFSET 0.000000 0.000000 0.000000
					}
				}
			}
		}
	}
}
MOTION
Frames: 6
Frame Time: 0.016667
-392.045074 830.978943 1140.583984 5.772780 -1.079516 0.416978 -0.366672 0.809357 -0.267163 -0.355679 -0.163871 0.059340 -0.357488 0.165227 -0.014359 -0.125247 0.634120 0.582231 0.000000 0.000000 0.000000 0.108330 0.629837 -0.347716 0.040158 0.463252 0.559664 -0.037913 0.571118 -0.313233 0.000000 0.000000 0.000000 0.578530 0.442216 -0.103791 -0.023452 0.365345 -0.266597 0.213451 0.957040 1.240216 0.000000 0.000000 0.000000 -0.067044 0.123525 -2.467677 -0.063993 1.892062 0.158334 -0.101225 -0.322887 -0.114969 0.000000 0.000000 0.000000 -0.028120 1.776411 0.931078 -0.007724 -1.588799 -0.250293 -0.003888 0.646559 0.170061 0.000000 0.000000 0.000000 
-392.025482 830.965820 1140.584961 5.777664 -1.076939 0.417591 -0.366994 0.803278 -0.273626 -0.355520 -0.162498 0.060246 -0.357451 0.164318 -0.015025 -0.125596 0.631196 0.582852 0.000000 0.000000 0.000000 0.111092 0.627030 -0.348399 0.040481 0.461211 0.557913 -0.038227 0.575164 -0.317205 0.000000 0.000000 0.000000 0.581134 0.438605 -0.103105 -0.023952 0.361168 -0.265965 0.213388 0.954309 1.243575 0.000000 0.000000 0.000000 -0.068421 0.123726 -2.464912 -0.065342 1.888591 0.152860 -0.102848 -0.320408 -0.115172 0.000000 0.000000 0.000000 -0.029682 1.772915 0.930173 -0.009328 -1.586632 -0.248102 -0.005144 0.645887 0.169294 0.000000 0.000000 0.000000 
-392.002075 830.957886 1140.587036 5.782533 -1.074553 0.418050 -0.367202 0.796790 -0.278351 -0.355350 -0.161166 0.060980 -0.357391 0.163419 -0.015680 -0.125689 0.630659 0.583072 0.000000 0.000000 0.000000 0.112886 0.625324 -0.347121 0.040293 0.461185 0.553062 -0.038337 0.575939 -0.320237 0.000000 0.000000 0.000000 0.584288 0.435568 -0.103736 -0.024683 0.357799 -0.268411 0.213130 0.950989 1.245328 0.000000 0.000000 0.000000 -0.069830 0.128527 -2.463084 -0.066939 1.876237 0.149040 -0.104320 -0.313067 -0.114266 0.000000 0.000000 0.000000 -0.031339 1.771773 0.930025 -0.010976 -1.588585 -0.247604 -0.006574 0.647668 0.169099 0.000000 0.000000 0.000000 
-391.982819 830.952759 1140.588989 5.787455 -1.073106 0.418240 -0.367016 0.793756 -0.281742 -0.354952 -0.163641 0.060939 -0.356899 0.164673 -0.014824 -0.125640 0.628982 0.582543 0.000000 0.000000 0.000000 0.113452 0.624124 -0.346052 0.039996 0.461511 0.547497 -0.038374 0.575412 -0.323238 0.000000 0.000000 0.000000 0.586167 0.432300 -0.105357 -0.025794 0.354896 -0.274316 0.212675 0.946166 1.246850 0.000000 0.000000 0.000000 -0.070954 0.136221 -2.461745 -0.068373 1.859424 0.146332 -0.105419 -0.303708 -0.112759 0.000000 0.000000 0.000000 -0.033163 1.772419 0.930565 -0.012756 -1.592613 -0.248283 -0.008238 0.650734 0.169136 0.000000 0.000000 0.000000 
-391.977753 830.950989 1140.592041 5.791309 -1.071313 0.418269 -0.366360 0.789941 -0.284074 -0.354130 -0.162560 0.060756 -0.356108 0.163971 -0.015246 -0.125972 0.627906 0.583490 0.000000 0.000000 0.000000 0.112815 0.622634 -0.344006 0.039724 0.461371 0.542404 -0.038440 0.575827 -0.325153 0.000000 0.000000 0.000000 0.586255 0.429404 -0.106671 -0.026901 0.352953 -0.281101 0.211959 0.939867 1.247253 0.000000 0.000000 0.000000 -0.072001 0.141183 -2.461124 -0.069666 1.845596 0.144940 -0.106353 -0.295021 -0.111322 0.000000 0.000000 0.000000 -0.034789 1.771650 0.930712 -0.014365 -1.595886 -0.248261 -0.009670 0.653689 0.169252 0.000000 0.000000 0.000000 
-391.992859 830.953308 1140.593994 5.794248 -1.070474 0.417843 -0.366184 0.791055 -0.285273 -0.353907 -0.163372 0.060540 -0.355872 0.164339 -0.015415 -0.126189 0.623984 0.583423 0.000000 0.000000 0.000000 0.114227 0.619758 -0.343843 0.039808 0.459388 0.539614 -0.038681 0.579488 -0.326728 0.000000 0.000000 0.000000 0.587185 0.426380 -0.108826 -0.028227 0.350824 -0.289371 0.211011 0.931758 1.247428 0.000000 0.000000 0.000000 -0.073021 0.143242 -2.461327 -0.070830 1.837650 0.145378 -0.107184 -0.288907 -0.110388 0.000000 0.000000 0.000000 -0.035956 1.769889 0.930415 -0.015553 -1.596867 -0.247035 -0.010607 0.655758 0.169364 0.000000 0.000000 0.000000 
